# xmcd
#
# Track frame offsets: 
#        150
#        20121
#        39282
#        57431
#        80202
#        99599
#        127415
#        148838
#        171908
#        188982
#
# Disc length: 2810 seconds
#
# Revision: 2
# Processed by: cddbd v1.5.2PL0 Copyright (c) Steve Scherf et al.
# Submitted via: ExactAudioCopyFreeDBPlugin 1.0
#
DISCID=990af80a
DTITLE=Hanjo Gäbler, Eggo Fuhrmann and Volker Dymel - Songs For Gospel 1
DYEAR=1900
DGENRE=Chorus
TTITLE0=The Lord Never Falls
TTITLE1=The Privilege
TTITLE2=He Came To Save Me
TTITLE3=I waited Patiently
TTITLE4=King Of Kings
TTITLE5=You Don't Have To Be Afraid
TTITLE6=Please Lord Take Me
TTITLE7=My God
TTITLE8=You´re My Brother
TTITLE9=When God Says It´s Over
EXTD=
EXTT0=
EXTT1=
EXTT2=
EXTT3=
EXTT4=
EXTT5=
EXTT6=
EXTT7=
EXTT8=
EXTT9=
PLAYORDER=
